<svg width="401" height="374" viewBox="0 0 401 374" fill="none" xmlns="http://www.w3.org/2000/svg">
<path d="M0 109H61L71.3265 131M323 305H153L128.122 252M128.122 252L312 258L352 204M128.122 252L71.3265 131M71.3265 131L392 142L352 204M352 204C341.691 200.667 309 196 279 232" stroke="#F80404" stroke-width="10"/>
<ellipse cx="285" cy="179" rx="9" ry="8" fill="#F80404"/>
<ellipse cx="353" cy="171" rx="9" ry="8" fill="#F80404"/>
<ellipse cx="160" cy="346" rx="29" ry="28" fill="#F80404"/>
<ellipse cx="305" cy="346" rx="29" ry="28" fill="#F80404"/>
<line x1="115.293" y1="39.437" x2="155.293" y2="106.437" stroke="#F80404" stroke-width="10"/>
<line x1="338.007" y1="41.9904" x2="288.007" y2="108.99" stroke="#F80404" stroke-width="10"/>
<line x1="280.647" y1="4.84597" x2="251.647" y2="77.846" stroke="#F80404" stroke-width="10"/>
<line x1="182.801" y1="1.60233" x2="205.801" y2="80.6023" stroke="#F80404" stroke-width="10"/>
</svg>
